<?xml version="1.0" standalone="no"?>
<!DOCTYPE svg PUBLIC "-//W3C//DTD SVG 20010904//EN"
 "http://www.w3.org/TR/2001/REC-SVG-20010904/DTD/svg10.dtd">
<svg version="1.0" xmlns="http://www.w3.org/2000/svg"
 width="2048.000000pt" height="2048.000000pt" viewBox="0 0 2048.000000 2048.000000"
 preserveAspectRatio="xMidYMid meet">

<g transform="translate(0.000000,2048.000000) scale(0.100000,-0.100000)"
fill="#6366f1" stroke="none">
<path d="M10893 15923 c15 -2 37 -2 50 0 12 2 0 4 -28 4 -27 0 -38 -2 -22 -4z"/>
<path d="M10740 15910 c20 -13 73 -13 65 0 -3 6 -23 10 -43 10 -28 0 -33 -3
-22 -10z"/>
<path d="M11017 15914 c-4 -5 -45 -11 -90 -14 l-82 -5 75 -17 c41 -10 100 -20
130 -23 30 -3 82 -9 115 -14 134 -22 165 -24 165 -12 0 6 -15 11 -34 11 -19 0
-38 5 -41 10 -4 6 10 10 34 10 22 0 43 -4 46 -10 3 -5 24 -10 46 -10 21 0 39
-4 39 -10 0 -5 -18 -10 -41 -10 -49 0 -43 -16 8 -23 52 -6 166 -37 177 -48 6
-5 -9 -9 -36 -9 -26 0 -50 5 -53 10 -3 6 -17 10 -30 10 -14 0 -44 5 -68 12
-32 8 -55 8 -85 1 -25 -6 -44 -7 -48 -2 -3 5 5 9 17 9 48 0 7 12 -53 15 -34 2
-87 9 -116 14 -38 8 -67 8 -98 0 -46 -12 -95 -8 -159 11 -75 23 -200 31 -550
37 -336 5 -440 0 -675 -28 -203 -24 -265 -34 -465 -69 -132 -23 -269 -56 -422
-101 -18 -5 -48 -13 -65 -18 -18 -6 -49 -14 -68 -19 -114 -31 -399 -135 -527
-193 -24 -10 -64 -28 -90 -40 -485 -212 -1016 -556 -1455 -941 -303 -266 -470
-447 -766 -830 -54 -70 -232 -333 -232 -343 0 -3 -27 -46 -60 -95 -33 -49 -60
-92 -60 -96 0 -3 -8 -18 -19 -32 -23 -33 -43 -69 -111 -198 -46 -86 -81 -142
-69 -109 7 20 103 210 109 215 3 3 15 23 27 45 302 563 703 1066 1208 1515
133 119 416 334 605 460 270 181 771 452 963 521 25 9 36 18 32 27 -3 9 0 12
8 9 8 -3 13 3 14 14 1 12 -5 19 -17 19 -15 0 -173 -64 -350 -142 -109 -48
-362 -177 -435 -222 -44 -27 -95 -57 -114 -68 -19 -11 -60 -37 -92 -59 -32
-21 -63 -39 -68 -39 -6 0 -11 -4 -11 -8 0 -5 -12 -15 -27 -23 -16 -8 -37 -22
-47 -31 -22 -20 -41 -24 -31 -8 7 11 221 156 277 189 18 10 70 41 116 70 46
28 85 51 87 51 2 0 43 23 92 51 191 111 683 334 867 393 10 4 16 9 13 12 -6 6
-104 -23 -122 -36 -5 -4 -19 -10 -30 -13 -43 -11 -213 -76 -265 -100 -30 -14
-107 -48 -170 -77 -139 -62 -428 -211 -525 -270 -260 -159 -578 -386 -785
-559 -241 -203 -617 -586 -755 -770 -11 -14 -34 -42 -51 -61 -59 -64 -163
-206 -304 -412 -33 -48 -60 -90 -60 -93 0 -3 -17 -32 -38 -63 -71 -105 -235
-413 -310 -582 -70 -159 -89 -201 -102 -235 -4 -11 -13 -33 -20 -50 -14 -33
-15 -37 -55 -139 -28 -73 -103 -301 -125 -376 -7 -25 -16 -56 -21 -70 -10 -29
-36 -126 -50 -185 -6 -22 -14 -56 -18 -75 -21 -88 -49 -235 -71 -375 -6 -38
-15 -95 -20 -125 -10 -59 -23 -172 -39 -335 -31 -308 -18 -895 29 -1222 5 -40
14 -103 19 -140 6 -38 12 -77 15 -88 5 -24 20 -97 46 -235 25 -132 39 -198 50
-230 4 -14 13 -45 20 -70 7 -25 16 -56 20 -70 5 -14 23 -72 41 -130 59 -195
90 -283 139 -405 4 -11 14 -36 21 -55 12 -33 24 -61 79 -185 12 -27 31 -70 42
-95 65 -148 220 -442 269 -512 11 -14 19 -29 19 -32 0 -10 162 -257 243 -371
103 -146 286 -381 390 -500 125 -144 467 -477 607 -591 19 -16 37 -31 40 -34
13 -14 116 -95 215 -170 98 -74 458 -320 469 -320 2 0 35 -19 72 -42 129 -78
446 -241 604 -311 256 -113 633 -240 940 -317 49 -13 212 -46 290 -60 36 -6
88 -15 115 -20 245 -43 434 -64 685 -77 181 -9 202 -9 435 0 302 12 557 42
908 107 88 16 228 48 302 69 305 85 402 117 615 203 72 29 93 37 143 57 12 5
38 16 57 24 19 9 55 23 80 33 56 22 409 202 430 219 8 6 40 25 70 42 76 41
169 99 190 118 9 8 20 15 24 15 8 0 187 122 268 182 138 103 268 210 350 287
9 9 44 39 76 66 33 28 65 58 71 68 28 42 -30 -1 -264 -197 -53 -45 -99 -76
-113 -76 -12 0 -104 -56 -205 -124 -100 -68 -198 -133 -217 -144 -19 -10 -72
-42 -116 -70 -45 -27 -106 -63 -135 -79 -30 -17 -72 -40 -94 -53 -22 -13 -58
-33 -80 -44 -22 -12 -42 -23 -45 -26 -3 -3 -25 -16 -50 -29 -150 -80 -195
-101 -204 -97 -6 2 -2 7 9 12 11 4 22 10 25 13 3 3 25 17 50 30 116 61 155 83
165 91 5 4 26 17 45 28 19 11 76 43 125 72 50 29 104 60 120 70 182 104 580
389 634 454 24 28 7 27 -30 -3 -19 -15 -113 -80 -209 -144 -96 -63 -188 -126
-205 -140 -16 -13 -48 -35 -70 -47 -22 -12 -44 -26 -50 -30 -10 -8 -52 -31
-130 -73 -22 -12 -42 -24 -45 -27 -16 -16 -92 -51 -103 -46 -7 3 -3 7 11 11
12 4 22 11 22 16 0 5 9 9 20 9 11 0 20 5 20 10 0 6 7 10 15 10 8 0 15 5 15 10
0 16 -10 13 -128 -47 -78 -39 -108 -59 -100 -66 9 -5 4 -7 -13 -3 -17 4 -44
-3 -75 -18 -149 -71 -286 -128 -404 -166 -30 -10 -100 -36 -155 -57 -156 -62
-553 -173 -730 -203 -147 -25 -377 -50 -465 -50 -36 0 -92 -4 -125 -9 -33 -5
-124 -12 -203 -16 -138 -6 -143 -6 -133 12 21 40 1 47 -117 39 -142 -8 -405 9
-667 44 -38 5 -108 14 -155 20 -104 14 -171 25 -275 46 -44 9 -98 20 -120 25
-51 10 -120 26 -165 38 -117 31 -158 42 -180 50 -14 5 -45 14 -70 21 -114 33
-323 104 -465 160 -28 11 -113 49 -158 71 -22 11 -44 19 -50 19 -13 0 -66 39
-54 40 4 0 29 -9 55 -21 26 -12 56 -25 67 -29 11 -4 40 -17 65 -27 25 -11 65
-25 90 -33 25 -7 49 -17 55 -22 5 -4 17 -8 27 -8 10 0 26 -4 36 -10 18 -10
155 -56 207 -70 17 -5 68 -20 115 -34 163 -48 417 -115 490 -128 30 -5 75 -13
100 -18 112 -21 130 -23 130 -11 0 6 -18 11 -43 11 -24 0 -47 4 -52 9 -9 8
-32 13 -137 27 -24 3 -52 9 -63 14 -11 6 -47 17 -80 26 -106 28 -119 32 -189
54 -49 16 -64 25 -55 32 10 6 7 8 -11 7 -41 -2 -52 0 -45 11 4 6 -9 10 -32 10
-28 0 -34 3 -23 10 11 7 3 10 -28 10 -29 0 -41 4 -36 11 4 7 -3 10 -17 9 -13
-1 -31 -2 -39 -1 -13 1 -13 2 0 11 11 7 5 10 -25 10 -30 0 -36 3 -25 10 11 7
3 10 -30 10 -35 0 -42 3 -30 11 11 8 6 9 -22 4 -36 -5 -60 7 -36 19 7 3 0 4
-15 1 -34 -7 -55 3 -36 17 10 7 5 8 -14 4 -34 -8 -55 2 -36 16 10 7 5 8 -14 4
-34 -8 -55 2 -36 16 10 7 5 8 -14 4 -35 -8 -59 4 -31 16 12 5 7 6 -15 2 -29
-5 -33 -4 -28 10 5 12 0 16 -19 16 -14 0 -22 4 -19 10 3 6 -1 10 -10 10 -9 0
-27 7 -40 16 -14 9 -25 14 -25 10 0 -3 -9 2 -19 11 -11 9 -59 37 -108 62 -48
26 -119 64 -158 85 -547 301 -1123 769 -1485 1206 -34 41 -81 95 -104 120
-170 183 -397 520 -583 865 -54 100 -183 362 -183 371 0 2 -22 53 -49 112 -27
59 -56 127 -64 152 -9 25 -32 90 -52 144 -112 310 -219 761 -264 1111 -34 263
-47 908 -22 1120 39 336 46 385 71 515 19 94 62 288 81 355 5 22 14 56 19 75
15 60 27 103 42 150 8 25 26 79 38 120 13 41 27 79 32 85 4 5 8 17 8 27 0 10
4 26 9 36 5 9 24 55 41 102 35 92 45 116 84 203 14 32 26 60 26 63 0 19 142
303 218 437 12 20 32 54 43 75 12 20 30 49 40 64 11 14 19 29 19 33 0 3 18 33
40 65 22 32 40 63 40 69 0 5 4 11 8 13 5 2 46 59 92 128 46 69 106 154 133
190 45 58 183 227 197 240 3 3 30 34 60 70 98 116 386 408 495 500 28 23 61
52 75 64 14 11 42 33 62 48 20 15 42 33 50 40 47 45 415 307 514 366 27 16 87
53 134 82 118 73 371 206 480 253 19 8 62 27 95 42 89 40 196 82 325 127 105
36 157 52 375 118 73 21 303 75 390 90 469 83 668 102 1065 102 332 1 538 -15
790 -59 47 -8 108 -18 135 -22 28 -5 93 -19 145 -31 52 -12 111 -26 130 -30
58 -14 290 -76 335 -90 179 -58 221 -72 290 -100 11 -4 36 -13 55 -20 34 -12
58 -21 103 -39 12 -5 40 -15 62 -22 22 -7 45 -17 52 -22 6 -4 14 -3 18 3 3 5
-1 10 -9 10 -9 0 -16 5 -16 10 0 6 9 10 20 10 11 0 20 -3 20 -7 0 -8 43 -30
105 -55 29 -11 29 -12 6 -16 l-24 -4 22 -11 c11 -7 65 -34 118 -60 54 -27 109
-55 123 -63 14 -7 59 -31 100 -51 41 -21 77 -41 80 -44 8 -10 50 -18 45 -9 -3
5 -18 15 -33 23 -78 41 -112 62 -112 69 0 14 16 9 75 -22 31 -16 65 -30 74
-30 10 0 26 -8 37 -18 10 -9 42 -28 69 -42 51 -25 131 -97 121 -107 -3 -4 -14
0 -23 8 -38 30 -80 48 -68 30 11 -19 300 -208 311 -204 6 2 32 -12 58 -32 52
-39 64 -31 14 10 -62 50 -80 69 -69 73 10 3 99 -57 137 -94 6 -5 31 -26 54
-45 23 -18 56 -45 73 -59 17 -14 42 -25 56 -25 19 0 26 -5 26 -20 0 -19 52
-77 88 -96 28 -15 20 6 -14 40 -18 19 -29 38 -25 46 3 9 0 15 -9 15 -8 0 -15
6 -15 13 0 15 -157 162 -292 276 -49 40 -88 80 -88 87 0 18 19 9 81 -39 24
-18 78 -56 121 -85 119 -81 258 -195 448 -369 202 -187 472 -450 518 -507 47
-59 50 -36 4 26 -34 46 -155 195 -226 278 -11 14 -33 41 -47 60 -15 19 -72 81
-128 136 -55 56 -101 104 -101 108 0 4 14 -1 31 -10 l32 -16 -29 40 c-29 41
-76 76 -87 66 -3 -4 -13 0 -21 7 -8 8 -50 42 -93 76 -255 203 -310 246 -335
261 -15 9 -28 20 -28 24 0 4 -5 8 -11 8 -6 0 -30 14 -54 30 -24 17 -47 30 -51
30 -4 0 -30 17 -58 38 -28 22 -67 45 -86 52 -19 7 -58 30 -85 51 -28 21 -61
44 -75 51 -52 27 -150 93 -154 105 -7 17 20 6 71 -29 23 -15 46 -28 52 -28 6
0 11 -4 11 -8 0 -9 81 -55 86 -49 9 9 -142 117 -162 117 -3 0 -24 13 -47 28
-55 37 -110 62 -136 62 -12 0 -21 5 -21 10 0 15 -61 50 -85 49 -11 0 -14 -3
-7 -6 19 -7 14 -23 -7 -23 -11 0 -21 -7 -23 -15 -2 -13 -12 -10 -53 11 -69 37
-99 61 -83 67 9 4 9 6 -2 7 -16 1 -60 34 -60 44 0 9 38 7 42 -1 4 -11 63 -43
78 -43 7 0 27 -7 46 -16 18 -9 39 -14 46 -12 12 4 -51 37 -154 82 -21 9 -53
22 -70 30 -52 23 -191 78 -218 86 -14 5 -63 22 -110 40 -133 49 -214 75 -365
118 -226 64 -275 73 -275 52 0 -5 11 -10 25 -10 14 0 25 -4 25 -10 0 -18 -49
-11 -59 9 -6 10 -8 21 -5 23 5 6 -88 29 -199 49 -53 10 -73 10 -88 1 -23 -15
-85 -16 -94 -2 -4 6 13 10 42 11 l48 1 -39 10 c-28 8 -48 7 -76 -2 -25 -8 -51
-10 -77 -4 l-38 8 55 6 c30 4 48 7 39 8 -9 1 -29 5 -45 8 -16 3 -33 2 -37 -2z
m-430 -104 c53 -7 96 -7 124 -1 33 8 49 6 72 -6 17 -8 71 -19 121 -24 50 -4
100 -10 111 -13 31 -7 165 -26 210 -29 22 -2 45 -6 51 -10 19 -11 141 -43 257
-67 22 -4 46 -14 54 -22 13 -13 10 -16 -24 -21 -40 -6 -126 4 -203 23 -25 6
-67 15 -95 20 -27 5 -63 12 -80 15 l-30 7 33 -21 c18 -12 45 -21 60 -21 16 0
32 -4 37 -9 6 -5 28 -11 50 -14 54 -7 96 -17 120 -27 11 -5 31 -10 45 -12 14
-2 26 -9 26 -15 3 -23 4 -24 25 -13 11 7 28 9 37 5 13 -5 7 -10 -23 -21 -38
-13 -75 -11 -75 4 0 4 -19 8 -42 8 -24 0 -68 6 -98 12 -223 48 -503 83 -815
103 -195 12 -635 6 -789 -11 -156 -18 -259 -30 -324 -40 -201 -30 -220 -34
-362 -61 -30 -6 -118 -27 -195 -46 -77 -19 -156 -38 -175 -43 -19 -4 -66 -18
-105 -30 -38 -12 -79 -24 -89 -27 -13 -4 -17 -2 -12 5 4 7 16 12 26 12 10 0
22 5 25 10 3 6 15 10 26 10 10 0 27 4 37 10 9 5 53 21 97 36 44 15 93 33 108
39 l28 12 -27 17 c-17 12 -24 13 -18 5 6 -12 5 -12 -9 0 -9 7 -47 16 -83 19
l-66 5 39 14 c106 38 333 96 496 127 167 32 221 41 392 66 68 10 260 29 350
34 110 7 599 -4 682 -14z m898 0 c4 -6 -5 -10 -19 -10 -14 0 -26 5 -26 10 0 6
9 10 19 10 11 0 23 -4 26 -10z m-375 -14 c0 -11 -19 -15 -25 -6 -3 5 1 10 9
10 9 0 16 -2 16 -4z m265 -46 c3 -5 24 -10 46 -10 21 0 39 -4 39 -10 0 -5 -15
-10 -34 -10 -19 0 -38 5 -41 10 -3 6 -18 10 -33 10 -15 0 -34 5 -42 10 -11 7
-6 10 22 10 20 0 40 -4 43 -10z m205 -40 c0 -5 -18 -10 -39 -10 -22 0 -43 5
-46 10 -4 6 12 10 39 10 25 0 46 -4 46 -10z m67 -106 c-3 -3 -12 -4 -19 -1 -8
3 -5 6 6 6 11 1 17 -2 13 -5z m178 -14 c3 -5 1 -10 -4 -10 -6 0 -11 5 -11 10
0 6 2 10 4 10 3 0 8 -4 11 -10z m-135 -4 c0 -3 -4 -8 -10 -11 -5 -3 -10 -1
-10 4 0 6 5 11 10 11 6 0 10 -2 10 -4z m55 -16 c3 -5 -1 -10 -9 -10 -9 0 -16
5 -16 10 0 6 4 10 9 10 6 0 13 -4 16 -10z m605 -30 c0 -5 -7 -7 -15 -4 -8 4
-15 8 -15 10 0 2 7 4 15 4 8 0 15 -4 15 -10z m-730 -30 c0 -5 -9 -10 -20 -10
-11 0 -20 5 -20 10 0 6 9 10 20 10 11 0 20 -4 20 -10z m661 -16 c35 -14 82
-34 104 -44 22 -10 63 -28 90 -40 82 -36 158 -71 198 -91 22 -10 45 -19 52
-19 7 0 15 -3 17 -7 3 -7 25 -20 123 -72 26 -13 27 -16 10 -19 -10 -3 -21 1
-23 7 -2 6 -12 11 -23 11 -10 0 -19 3 -19 8 0 7 -47 32 -62 32 -4 0 -32 11
-62 25 -30 14 -61 25 -70 25 -8 0 -17 4 -20 9 -3 4 -27 14 -53 21 -27 7 -52
16 -58 20 -5 4 -26 13 -45 20 -68 25 -260 122 -260 131 0 16 34 10 101 -17z
m-395 -23 c16 -5 63 -19 104 -31 65 -19 119 -39 195 -71 11 -5 32 -13 48 -19
29 -10 37 -30 12 -30 -8 0 -30 9 -50 20 -20 11 -46 20 -60 20 -13 0 -27 5 -30
10 -8 13 -48 13 -61 0 -10 -10 -54 0 -96 21 -10 5 -26 9 -37 9 -10 0 -36 8
-57 17 -38 17 -39 17 -11 21 28 3 39 22 13 22 -8 0 -18 5 -21 10 -8 12 13 13
51 1z m-86 -23 c0 -13 -32 -6 -37 9 -3 7 3 9 16 6 12 -3 21 -10 21 -15z
m-3340 -58 c-19 -13 -30 -13 -30 0 0 6 10 10 23 10 18 0 19 -2 7 -10z m-50
-14 c0 -2 -7 -6 -15 -10 -8 -3 -15 -1 -15 4 0 6 7 10 15 10 8 0 15 -2 15 -4z
m-53 -22 c-3 -3 -12 -4 -19 -1 -8 3 -5 6 6 6 11 1 17 -2 13 -5z m3753 -4 c0
-5 7 -10 15 -10 8 0 23 -4 33 -9 9 -5 31 -14 47 -21 17 -7 38 -16 47 -21 10
-5 25 -9 33 -9 8 0 15 -4 15 -9 0 -5 10 -12 23 -16 21 -7 21 -7 2 -12 -10 -3
-21 0 -23 6 -2 6 -14 11 -27 11 -13 0 -27 5 -30 10 -3 6 -15 10 -26 10 -10 0
-19 5 -19 10 0 6 -7 10 -15 10 -8 0 -23 4 -33 9 -9 5 -29 14 -44 22 -30 13
-37 29 -13 29 8 0 15 -4 15 -10z m190 -21 c0 -6 7 -8 16 -5 20 8 64 -19 64
-38 0 -10 -10 -12 -36 -9 -38 5 -73 32 -66 51 5 15 22 16 22 1z m480 1 c0 -5
-4 -10 -10 -10 -5 0 -10 5 -10 10 0 6 5 10 10 10 6 0 10 -4 10 -10z m-343 -75
l28 -25 -30 6 c-28 7 -45 20 -45 37 0 14 19 7 47 -18z m257 -94 c19 -11 61
-38 94 -60 33 -23 65 -41 71 -41 6 0 11 -4 11 -10 0 -5 -9 -10 -19 -10 -11 0
-23 5 -26 10 -3 6 -14 10 -23 10 -9 0 -28 9 -42 20 -14 11 -31 20 -39 20 -7 0
-26 11 -43 25 -16 14 -36 25 -44 25 -8 0 -14 7 -14 15 0 21 33 19 74 -4z m246
9 c0 -5 -2 -10 -4 -10 -3 0 -8 5 -11 10 -3 6 -1 10 4 10 6 0 11 -4 11 -10z
m40 -19 c0 -5 9 -13 20 -16 11 -3 20 -12 20 -18 0 -7 12 -18 28 -24 15 -7 33
-23 41 -35 10 -18 10 -20 0 -10 -7 6 -18 12 -25 12 -7 0 -31 18 -53 40 -22 22
-45 40 -51 40 -5 0 -10 5 -10 10 0 6 7 10 15 10 8 0 15 -4 15 -9z m-380 -21
c0 -5 -4 -10 -10 -10 -5 0 -10 5 -10 10 0 6 5 10 10 10 6 0 10 -4 10 -10z
m120 -60 c0 -5 -2 -10 -4 -10 -3 0 -8 5 -11 10 -3 6 -1 10 4 10 6 0 11 -4 11
-10z m50 -20 c0 -5 -7 -10 -15 -10 -8 0 -15 5 -15 10 0 6 7 10 15 10 8 0 15
-4 15 -10z m-5826 -114 c-10 -8 -21 -12 -23 -10 -3 2 4 11 15 18 10 8 21 12
23 10 3 -2 -4 -11 -15 -18z m6362 -151 c16 -14 35 -25 42 -25 6 0 12 -4 12 -8
0 -5 11 -15 25 -22 14 -7 25 -17 25 -22 0 -9 -40 9 -50 22 -3 3 -26 21 -52 39
-27 17 -48 34 -48 36 0 12 19 3 46 -20z m-6756 -155 c-30 -27 -56 -47 -59 -45
-2 3 7 13 20 24 13 10 38 31 54 45 17 14 32 26 35 26 3 -1 -20 -23 -50 -50z
m-110 -97 c-23 -21 -47 -40 -54 -42 -6 -2 12 16 39 42 28 25 52 44 53 42 2 -2
-15 -21 -38 -42z m-90 -76 c0 -1 -48 -50 -107 -107 -59 -58 -96 -91 -83 -75
21 26 181 183 188 185 1 0 2 -1 2 -3z m-1158 -1749 c-7 -7 -12 -8 -12 -2 0 14
12 26 19 19 2 -3 -1 -11 -7 -17z m-20 -40 c-7 -7 -12 -8 -12 -2 0 14 12 26 19
19 2 -3 -1 -11 -7 -17z m-20 -40 c-7 -7 -12 -8 -12 -2 0 14 12 26 19 19 2 -3
-1 -11 -7 -17z m15 -360 c-3 -8 -6 -5 -6 6 -1 11 2 17 5 13 3 -3 4 -12 1 -19z
m-12 -45 c-4 -10 -15 -39 -25 -66 -9 -26 -20 -50 -23 -54 -11 -11 -8 26 5 50
24 47 28 57 28 72 0 8 5 15 11 15 7 0 8 -7 4 -17z m-55 -148 c0 -8 -4 -23 -10
-33 -10 -18 -58 -163 -80 -242 -7 -25 -16 -56 -20 -70 -18 -58 -37 -139 -60
-250 -7 -30 -16 -71 -20 -90 -5 -19 -14 -69 -20 -110 -6 -41 -15 -97 -20 -125
-19 -103 -37 -257 -52 -440 -14 -176 -18 -740 -5 -905 14 -193 46 -418 98
-687 12 -62 65 -288 80 -338 81 -278 158 -499 245 -702 8 -18 21 -50 30 -70
49 -113 161 -330 273 -525 11 -21 29 -53 40 -70 15 -28 76 -125 111 -178 6 -8
23 -36 39 -61 16 -25 36 -55 44 -65 9 -10 50 -66 93 -124 216 -294 527 -626
774 -826 19 -16 37 -31 40 -34 3 -3 30 -25 60 -50 30 -25 61 -51 68 -58 8 -7
30 -25 50 -40 20 -15 47 -37 59 -49 12 -12 36 -30 53 -39 16 -10 30 -22 30
-27 0 -7 -88 48 -100 63 -3 4 -32 25 -65 47 -33 23 -69 49 -80 60 -11 10 -45
38 -75 63 -30 25 -57 47 -60 50 -3 3 -39 34 -80 70 -95 81 -270 256 -380 380
-47 52 -87 97 -90 100 -8 7 -104 121 -123 145 -9 11 -36 45 -60 75 -55 69
-327 476 -327 490 0 5 -4 10 -10 10 -5 0 -10 5 -10 11 0 6 -13 30 -30 54 -16
24 -30 46 -30 49 0 2 -22 42 -48 88 -48 83 -141 269 -182 363 -12 28 -33 74
-46 103 -13 29 -24 55 -24 57 0 3 -9 24 -19 48 -46 102 -111 289 -161 457 -12
41 -26 86 -30 100 -5 14 -18 66 -30 115 -11 50 -25 106 -30 125 -4 19 -13 60
-20 90 -6 30 -15 73 -20 95 -5 22 -14 74 -20 115 -6 41 -15 100 -20 130 -5 30
-14 102 -20 160 -6 58 -15 139 -20 180 -5 41 -12 123 -16 181 -6 112 -15 142
-35 122 -6 -6 -18 -9 -25 -6 -9 3 -14 -2 -15 -13 0 -11 -3 -14 -6 -6 -2 6 -8
10 -12 8 -4 -3 -8 1 -8 9 0 8 5 11 11 8 6 -4 5 1 -3 10 -13 16 -15 16 -32 1
-9 -8 -16 -24 -14 -35 2 -11 0 -17 -6 -14 -5 4 -7 11 -4 16 4 5 0 9 -7 9 -16
0 -42 41 -53 85 -8 30 -8 29 -16 -15 -4 -25 -8 -76 -10 -115 l-2 -70 -9 60
c-5 33 -9 191 -10 350 -1 291 10 448 47 655 13 74 13 72 8 -80 -3 -85 -7 -157
-9 -160 -1 -3 1 -12 6 -19 5 -10 10 -3 15 20 4 19 12 45 18 59 6 14 11 27 12
30 7 23 30 60 37 60 5 0 6 5 2 12 -4 7 -3 8 4 4 7 -4 13 -24 13 -44 1 -24 3
-29 6 -14 2 12 9 20 14 17 8 -6 13 8 10 28 0 4 4 7 10 7 7 0 9 -12 5 -32 -3
-18 -2 -46 2 -62 7 -26 10 -19 25 56 9 48 17 97 17 110 1 13 7 37 15 53 12 27
13 13 10 -125 -2 -85 -1 -139 1 -120 17 147 63 422 94 560 20 88 32 138 40
173 6 20 15 56 21 80 6 23 13 57 16 75 3 18 9 35 14 38 5 3 9 16 9 30 0 13 4
32 9 42 5 9 14 37 21 62 7 25 16 53 21 62 5 10 9 27 9 38 0 11 5 20 10 20 6 0
10 11 10 24 0 14 5 28 10 31 6 3 10 17 10 31 0 13 5 24 10 24 6 0 10 -7 10
-15z m-443 -607 c-3 -7 -5 -2 -5 12 0 14 2 19 5 13 2 -7 2 -19 0 -25z m-20
-90 c-3 -8 -6 -5 -6 6 -1 11 2 17 5 13 3 -3 4 -12 1 -19z m-20 -115 c-3 -10
-5 -2 -5 17 0 19 2 27 5 18 2 -10 2 -26 0 -35z m199 -54 c-7 -45 -17 -49 -14
-6 1 20 6 37 11 37 4 0 6 -14 3 -31z m-219 -61 c-2 -13 -4 -5 -4 17 -1 22 1
32 4 23 2 -10 2 -28 0 -40z m203 -22 c-4 -19 -5 -37 -2 -40 3 -4 0 -6 -6 -6
-12 0 -9 51 4 72 10 16 12 7 4 -26z m2446 -5423 c-6 -6 -46 20 -46 30 0 4 11
0 25 -9 14 -9 24 -19 21 -21z m34 -13 c0 -5 -4 -10 -10 -10 -5 0 -10 5 -10 10
0 6 5 10 10 10 6 0 10 -4 10 -10z m30 -20 c0 -5 -2 -10 -4 -10 -3 0 -8 5 -11
10 -3 6 -1 10 4 10 6 0 11 -4 11 -10z m30 -20 c0 -5 -2 -10 -4 -10 -3 0 -8 5
-11 10 -3 6 -1 10 4 10 6 0 11 -4 11 -10z m140 -80 c0 -5 -2 -10 -4 -10 -3 0
-8 5 -11 10 -3 6 -1 10 4 10 6 0 11 -4 11 -10z m40 -20 c0 -5 -2 -10 -4 -10
-3 0 -8 5 -11 10 -3 6 -1 10 4 10 6 0 11 -4 11 -10z m225 -200 c3 -5 2 -10 -4
-10 -5 0 -13 5 -16 10 -3 6 -2 10 4 10 5 0 13 -4 16 -10z m40 -20 c3 -5 2 -10
-4 -10 -5 0 -13 5 -16 10 -3 6 -2 10 4 10 5 0 13 -4 16 -10z m90 -40 c3 -5 -1
-10 -9 -10 -9 0 -16 5 -16 10 0 6 4 10 9 10 6 0 13 -4 16 -10z m4755 -110
c-26 -20 -50 -26 -50 -12 0 9 39 29 60 31 9 0 6 -7 -10 -19z m-4785 -70 c3 -5
1 -10 -4 -10 -6 0 -11 5 -11 10 0 6 2 10 4 10 3 0 8 -4 11 -10z m73 -31 c82
-37 105 -47 177 -74 74 -28 101 -39 138 -55 141 -60 617 -196 837 -239 184
-36 264 -51 340 -61 47 -6 114 -15 150 -20 199 -27 461 -42 570 -33 l85 8 -65
6 c-36 4 -107 7 -159 8 -87 1 -178 12 -261 31 -23 5 32 9 155 10 173 2 350 15
255 19 -19 1 -42 6 -50 11 -10 7 17 10 87 10 57 0 105 -4 108 -10 4 -6 -8 -11
-27 -11 -58 -3 57 -17 152 -19 47 -1 99 -6 115 -10 l30 -8 -35 -2 c-28 -2 -23
-4 25 -11 61 -9 426 20 505 41 19 5 127 28 240 50 113 23 230 48 260 57 62 17
122 32 163 40 15 3 30 9 33 14 3 5 15 9 28 9 12 0 27 5 33 11 6 6 19 9 29 6
18 -4 18 -4 -1 -11 -11 -4 -28 -12 -37 -17 -10 -5 -27 -9 -38 -9 -11 0 -20 -4
-20 -10 0 -5 -9 -10 -20 -10 -11 0 -28 -4 -38 -10 -95 -53 -273 -104 -482
-139 -30 -5 -95 -17 -145 -26 -105 -18 -206 -32 -325 -45 -47 -5 -150 -16
-229 -24 -79 -9 -198 -16 -265 -16 -122 0 -400 20 -553 40 -249 31 -250 31
-423 60 -118 20 -169 29 -260 50 -52 13 -106 25 -120 27 -23 5 -106 27 -205
55 -111 31 -298 96 -397 137 -52 21 -73 29 -108 41 -64 22 -310 138 -310 146
0 7 9 5 58 -17z m4532 -89 c0 -5 -7 -10 -16 -10 -8 0 -12 5 -9 10 3 6 10 10
16 10 5 0 9 -4 9 -10z m-45 -20 c-3 -5 -13 -10 -21 -10 -8 0 -12 5 -9 10 3 6
13 10 21 10 8 0 12 -4 9 -10z m-510 -100 c-3 -5 -13 -10 -21 -10 -8 0 -12 5
-9 10 3 6 13 10 21 10 8 0 12 -4 9 -10z m-570 -260 c-3 -5 -18 -10 -33 -10
-21 0 -24 2 -12 10 20 13 53 13 45 0z m-95 -20 c-14 -4 -34 -8 -45 -9 -16 -1
-17 1 -5 9 8 5 29 9 45 9 29 -1 29 -1 5 -9z m-115 -20 c-11 -5 -33 -8 -50 -8
-29 0 -29 0 -5 8 14 4 36 8 50 8 23 1 23 0 5 -8z m-1630 -20 l30 -8 -35 0
c-19 0 -44 3 -55 8 -18 8 -18 9 5 8 14 0 39 -4 55 -8z m1543 5 c-2 -3 -39 -10
-81 -15 -43 -6 -112 -15 -154 -20 -318 -42 -593 -51 -883 -30 -229 16 -495 54
-315 45 44 -3 256 -7 470 -11 377 -6 752 6 830 26 33 9 141 13 133 5z"/>
<path d="M11030 15700 c0 -5 9 -10 21 -10 11 0 17 5 14 10 -3 6 -13 10 -21 10
-8 0 -14 -4 -14 -10z"/>
<path d="M10780 15696 c0 -2 16 -6 35 -8 19 -2 35 0 35 4 0 4 -16 8 -35 8 -19
0 -35 -2 -35 -4z"/>
<path d="M11100 15690 c0 -5 5 -10 11 -10 5 0 7 5 4 10 -3 6 -8 10 -11 10 -2
0 -4 -4 -4 -10z"/>
<path d="M10881 15676 c9 -9 90 -13 95 -5 3 5 -18 9 -47 9 -29 0 -50 -2 -48
-4z"/>
<path d="M11368 15673 c6 -2 18 -2 25 0 6 3 1 5 -13 5 -14 0 -19 -2 -12 -5z"/>
<path d="M11038 15653 c6 -2 18 -2 25 0 6 3 1 5 -13 5 -14 0 -19 -2 -12 -5z"/>
<path d="M11440 15650 c0 -5 9 -10 20 -10 11 0 20 5 20 10 0 6 -9 10 -20 10
-11 0 -20 -4 -20 -10z"/>
<path d="M11153 15633 c9 -2 23 -2 30 0 6 3 -1 5 -18 5 -16 0 -22 -2 -12 -5z"/>
<path d="M11885 15430 c3 -5 13 -10 21 -10 8 0 14 5 14 10 0 6 -9 10 -21 10
-11 0 -17 -4 -14 -10z"/>
<path d="M11940 15410 c0 -5 12 -10 26 -10 14 0 23 4 19 10 -3 6 -15 10 -26
10 -10 0 -19 -4 -19 -10z"/>
<path d="M12000 15390 c0 -5 12 -10 26 -10 14 0 23 4 19 10 -3 6 -15 10 -26
10 -10 0 -19 -4 -19 -10z"/>
<path d="M10428 4633 c12 -2 30 -2 40 0 9 3 -1 5 -23 4 -22 0 -30 -2 -17 -4z"/>
<path d="M11668 15843 c7 -3 16 -2 19 1 4 3 -2 6 -13 5 -11 0 -14 -3 -6 -6z"/>
<path d="M10865 15830 c-4 -6 14 -10 47 -10 38 0 49 3 38 10 -20 13 -77 13
-85 0z"/>
<path d="M11866 15792 c5 -5 43 -19 84 -32 41 -13 79 -27 85 -32 5 -4 19 -8
30 -8 12 0 25 -3 29 -7 7 -8 76 -33 90 -33 34 0 -33 26 -213 86 -112 36 -120
38 -105 26z"/>
<path d="M8448 15743 c7 -3 16 -2 19 1 4 3 -2 6 -13 5 -11 0 -14 -3 -6 -6z"/>
<path d="M12205 15670 c3 -5 13 -10 21 -10 8 0 12 5 9 10 -3 6 -13 10 -21 10
-8 0 -12 -4 -9 -10z"/>
<path d="M12250 15656 c0 -2 7 -7 16 -10 8 -3 12 -2 9 4 -6 10 -25 14 -25 6z"/>
<path d="M12680 15470 c0 -5 5 -10 11 -10 5 0 7 5 4 10 -3 6 -8 10 -11 10 -2
0 -4 -4 -4 -10z"/>
<path d="M12715 15450 c3 -5 11 -10 16 -10 6 0 7 5 4 10 -3 6 -11 10 -16 10
-6 0 -7 -4 -4 -10z"/>
<path d="M12810 15405 c10 -12 67 -43 155 -82 6 -3 -1 4 -15 16 -27 22 -91 58
-129 72 -21 8 -22 8 -11 -6z"/>
<path d="M12426 15185 c25 -19 40 -19 20 0 -8 8 -20 15 -27 15 -7 0 -4 -6 7
-15z"/>
<path d="M13406 14996 c3 -9 12 -16 20 -16 8 0 14 -4 14 -10 0 -5 7 -10 15
-10 8 0 15 -4 15 -10 0 -5 7 -10 15 -10 8 0 15 -4 15 -9 0 -5 11 -11 24 -13
17 -4 23 -1 19 9 -3 7 -12 13 -20 13 -8 0 -33 13 -56 28 -64 43 -68 45 -61 28z"/>
<path d="M13000 14900 c0 -5 7 -10 16 -10 8 0 12 5 9 10 -3 6 -10 10 -16 10
-5 0 -9 -4 -9 -10z"/>
<path d="M13760 14758 c0 -9 7 -19 16 -22 24 -9 24 -4 3 18 -16 16 -19 17 -19
4z"/>
<path d="M8178 14523 c7 -3 16 -2 19 1 4 3 -2 6 -13 5 -11 0 -14 -3 -6 -6z"/>
<path d="M8160 14477 c0 -13 13 -44 30 -68 16 -24 30 -51 30 -59 0 -8 8 -34
17 -58 14 -37 14 -45 2 -53 -26 -16 -65 -9 -95 16 -25 21 -26 25 -9 25 37 0
-3 24 -42 25 -61 3 -95 15 -88 32 4 11 1 13 -11 9 -9 -3 -21 -3 -27 1 -7 4 -3
9 9 14 17 6 16 8 -10 18 -16 7 -37 10 -45 8 -10 -3 -7 -5 7 -6 14 -1 20 -5 17
-12 -5 -7 -15 -5 -31 6 -19 12 -29 13 -44 5 -22 -12 -22 -12 22 -77 15 -23 28
-46 28 -52 0 -12 7 -28 33 -76 9 -16 33 -62 52 -101 36 -71 70 -102 99 -91 24
9 19 45 -9 73 -14 14 -28 42 -31 64 -4 22 -17 51 -30 65 -13 15 -24 32 -24 40
0 7 -6 15 -12 18 -9 3 -7 7 5 12 9 4 32 1 50 -7 17 -8 61 -26 97 -38 36 -13
82 -38 103 -57 30 -27 45 -33 82 -33 34 0 47 4 52 17 4 9 1 19 -5 21 -7 2 -12
15 -12 28 0 13 -4 24 -10 24 -5 0 -10 9 -10 20 0 12 -5 17 -14 14 -16 -6 -59
77 -50 99 2 7 0 27 -6 42 -9 23 -13 26 -20 15 -8 -13 -12 -12 -24 5 -9 11 -15
27 -13 35 2 16 -35 60 -52 60 -6 0 -11 -11 -11 -23z"/>
<path d="M14181 14353 c13 -15 84 -89 158 -164 120 -123 151 -148 151 -120 0
17 -162 190 -174 185 -6 -2 -35 19 -64 48 -28 29 -58 59 -66 66 -27 22 -30 13
-5 -15z m159 -123 c0 -5 -2 -10 -4 -10 -3 0 -8 5 -11 10 -3 6 -1 10 4 10 6 0
11 -4 11 -10z"/>
<path d="M7493 14160 c-36 -22 -40 -42 -19 -86 8 -16 19 -60 25 -99 6 -38 15
-90 20 -115 5 -25 14 -70 19 -100 13 -68 28 -110 41 -110 6 0 22 5 36 12 28
13 32 41 14 93 -11 29 -9 35 16 63 15 17 37 34 49 38 12 3 38 19 58 35 l37 29
48 -30 c47 -30 50 -30 81 -15 17 9 35 21 38 27 9 14 -16 29 -38 24 -10 -2 -21
0 -24 5 -3 5 0 9 7 9 13 0 -60 59 -73 60 -5 0 -8 -4 -8 -10 0 -5 7 -10 16 -10
8 0 12 -4 9 -10 -4 -6 -16 -3 -32 7 -14 9 -21 19 -14 21 6 2 8 8 5 13 -3 6
-11 5 -20 -2 -8 -6 -18 -9 -21 -5 -4 4 -1 11 6 15 9 6 10 11 2 15 -6 4 -11 2
-11 -3 0 -17 -22 -13 -50 9 -20 16 -22 20 -7 20 9 0 17 -4 17 -10 0 -5 7 -10
15 -10 23 0 18 14 -12 27 -18 9 -30 10 -39 2 -8 -6 -14 -6 -18 0 -3 5 0 12 6
15 7 3 2 3 -12 1 -27 -5 -69 20 -55 32 4 5 10 2 12 -4 3 -7 12 -13 21 -13 20
1 -45 60 -65 60 -7 0 -13 5 -13 10 0 16 -33 11 -67 -10z m62 -10 c3 -5 1 -10
-4 -10 -6 0 -11 5 -11 10 0 6 2 10 4 10 3 0 8 -4 11 -10z m35 -20 c0 -5 -4
-10 -10 -10 -5 0 -10 5 -10 10 0 6 5 10 10 10 6 0 10 -4 10 -10z m-5 -80 c3
-5 14 -10 23 -10 25 -1 112 -68 106 -82 -4 -11 -97 -78 -107 -78 -4 0 -24 63
-32 104 -3 16 -8 39 -11 52 -6 24 9 34 21 14z m295 -100 c0 -5 -4 -10 -9 -10
-6 0 -13 5 -16 10 -3 6 1 10 9 10 9 0 16 -4 16 -10z"/>
<path d="M14492 14047 c-9 -10 0 -24 37 -61 37 -36 50 -44 54 -32 4 11 1 13
-10 9 -12 -5 -15 -2 -10 10 4 12 2 14 -10 10 -12 -5 -14 -1 -9 18 3 13 3 18 0
12 -10 -22 -26 -14 -20 10 3 12 3 16 0 10 -9 -21 -26 -15 -19 7 7 23 2 26 -13
7z"/>
<path d="M7137 13882 c-29 -31 -20 -57 32 -101 74 -62 73 -74 -12 -153 -39
-38 -76 -68 -80 -68 -10 0 -45 36 -79 82 -16 20 -37 40 -48 43 -23 7 -70 -18
-70 -38 0 -6 31 -44 68 -82 37 -39 107 -114 156 -168 49 -53 94 -97 101 -97 6
0 22 11 35 25 l24 25 -24 33 c-30 39 -71 73 -86 69 -6 -1 -17 5 -24 13 -11 13
-3 25 51 78 97 94 106 100 128 85 10 -7 34 -33 53 -58 37 -50 59 -58 94 -39
32 17 30 27 -14 74 -20 22 -56 63 -79 90 -66 79 -188 205 -199 205 -6 0 -18
-8 -27 -18z"/>
<path d="M14635 13879 c-7 -11 35 -63 43 -54 3 3 -5 14 -17 24 -13 11 -20 25
-16 30 3 6 4 11 1 11 -3 0 -8 -5 -11 -11z"/>
<path d="M14710 13776 c0 -10 58 -84 93 -119 15 -15 27 -31 27 -36 0 -4 9 -16
20 -26 11 -10 20 -15 20 -12 0 14 -41 73 -60 87 -11 8 -20 20 -20 27 0 7 -4
13 -10 13 -5 0 -10 7 -10 15 0 8 -5 15 -11 15 -7 0 -20 10 -30 22 -11 11 -19
18 -19 14z"/>
<path d="M6725 13389 c-15 -6 -11 -8 18 -8 20 -1 37 1 37 3 0 9 -37 12 -55 5z"/>
<path d="M6635 13358 c-37 -27 -35 -26 -115 -117 l-65 -74 85 -79 c47 -44 101
-91 120 -105 19 -15 46 -39 60 -53 22 -24 79 -60 95 -60 13 0 110 109 146 164
35 53 39 66 39 122 0 48 -6 74 -24 106 -28 50 -96 110 -103 91 -5 -15 -33 -17
-33 -3 0 6 5 10 12 10 9 0 9 3 1 11 -8 8 -17 8 -32 0 -20 -11 -55 -10 -126 4
-22 4 -38 -1 -60 -17z m268 -32 c4 -10 1 -13 -9 -9 -15 6 -19 23 -5 23 5 0 11
-7 14 -14z m-55 -50 c45 -29 73 -103 58 -157 -12 -44 -74 -132 -96 -137 -8 -1
-47 26 -86 60 -39 35 -88 77 -108 93 -19 17 -36 35 -36 40 0 6 19 32 43 58 68
77 147 92 225 43z"/>
<path d="M9060 13151 c0 -78 0 -78 90 -91 151 -23 225 -57 302 -138 58 -61 98
-144 116 -242 22 -115 32 -394 32 -941 0 -312 5 -696 10 -855 16 -487 13
-1515 -5 -1674 -20 -179 -28 -217 -50 -265 -64 -133 -190 -200 -437 -230 -26
-4 -51 -12 -55 -20 -5 -7 -6 -36 -5 -64 l4 -51 686 2 687 3 3 62 c3 70 8 66
-98 77 -234 25 -365 95 -424 226 -54 120 -56 136 -66 595 -13 629 -13 2828 1
2823 15 -5 42 -59 84 -168 20 -52 44 -111 52 -130 31 -71 44 -106 63 -160 7
-19 16 -45 21 -57 5 -13 13 -33 18 -45 11 -30 26 -65 44 -108 9 -19 23 -55 32
-80 10 -25 23 -58 30 -75 7 -16 21 -50 30 -75 9 -25 21 -54 25 -65 4 -11 20
-51 35 -90 15 -38 34 -86 42 -105 8 -19 19 -45 24 -57 5 -13 13 -33 18 -45 5
-13 16 -39 24 -58 9 -19 25 -60 37 -90 12 -30 28 -71 37 -90 18 -42 33 -78 43
-105 12 -30 41 -97 56 -129 8 -16 14 -33 14 -38 0 -4 9 -27 19 -51 10 -23 40
-96 66 -162 26 -66 54 -136 62 -155 8 -19 18 -44 23 -55 22 -59 50 -125 61
-147 5 -10 9 -22 9 -28 0 -6 9 -29 19 -53 10 -23 40 -96 66 -162 26 -66 54
-136 62 -155 8 -19 18 -44 23 -55 4 -11 13 -33 20 -50 13 -30 24 -59 43 -105
5 -14 13 -33 18 -42 5 -10 9 -22 9 -28 0 -6 10 -32 21 -58 36 -81 46 -105 79
-187 17 -44 38 -96 47 -115 18 -42 33 -77 44 -107 5 -13 14 -35 20 -50 7 -16
15 -37 19 -48 11 -29 34 -81 63 -146 24 -53 28 -57 64 -60 79 -8 91 -2 118 57
14 30 25 59 25 64 0 6 4 18 9 28 5 9 14 29 20 45 6 15 15 37 20 50 6 12 17 42
25 67 14 44 38 112 57 158 23 56 28 69 39 102 7 19 16 44 20 55 4 11 18 47 30
80 26 72 32 87 58 145 10 25 29 74 41 110 12 36 26 74 31 85 4 11 22 58 40
105 18 47 36 95 41 108 20 49 29 73 38 95 4 12 13 33 19 47 5 14 15 41 22 60
15 43 24 68 38 100 6 14 18 45 26 70 14 43 39 114 56 155 4 11 16 40 25 65 17
46 27 71 64 152 11 26 21 51 21 55 0 7 45 128 72 193 13 31 28 68 39 98 5 12
14 33 19 47 6 14 15 36 20 50 6 14 14 35 19 48 5 12 16 38 24 57 8 19 27 67
42 105 15 39 36 89 46 112 10 24 19 47 19 53 0 6 4 18 9 28 12 23 25 56 51
127 12 33 26 70 31 83 5 12 14 33 19 47 24 61 33 81 41 97 5 10 9 22 9 28 0 6
8 29 19 53 10 23 24 58 31 77 7 19 16 45 21 58 25 62 30 74 38 95 5 12 15 40
22 62 7 22 18 54 25 70 7 17 24 60 39 97 15 38 31 65 36 62 5 -3 9 -451 9
-1063 0 -888 -2 -1063 -14 -1087 -8 -16 -24 -51 -36 -79 -12 -27 -33 -74 -46
-103 -13 -29 -24 -56 -24 -60 0 -4 -13 -42 -30 -84 -16 -43 -44 -115 -61 -160
-17 -46 -35 -92 -39 -103 -4 -11 -13 -36 -20 -55 -7 -19 -17 -46 -22 -60 -20
-48 -27 -65 -53 -140 -33 -94 -72 -214 -131 -400 -26 -80 -50 -154 -54 -165
-10 -27 -45 -140 -58 -190 -6 -22 -18 -65 -27 -95 -10 -30 -21 -71 -27 -90 -5
-19 -13 -50 -19 -67 -5 -18 -14 -50 -20 -70 -5 -21 -14 -51 -19 -68 -24 -82
-61 -226 -80 -310 -7 -27 -16 -67 -21 -87 -5 -21 -13 -55 -18 -75 -5 -21 -14
-63 -21 -93 -7 -30 -16 -71 -20 -90 -17 -74 -32 -147 -42 -205 -5 -33 -14 -82
-19 -110 -12 -70 -28 -167 -40 -250 -5 -38 -14 -97 -18 -130 -32 -219 -41
-340 -29 -402 18 -97 79 -143 138 -106 46 30 49 38 70 178 11 70 28 178 40
250 4 28 11 68 14 90 4 22 11 56 16 75 5 19 14 62 20 95 6 33 16 80 22 105 5
25 13 63 18 85 5 22 13 60 18 85 6 25 16 72 22 105 6 33 16 77 22 98 11 36 30
48 43 27 12 -20 82 -59 146 -81 57 -20 85 -23 252 -25 164 -1 190 -4 207 -19
11 -10 56 -68 100 -129 218 -304 223 -311 320 -405 68 -66 147 -123 215 -155
113 -53 275 -59 410 -14 81 27 179 72 281 128 168 94 588 478 792 724 76 92
82 103 82 144 0 46 -21 75 -47 65 -10 -4 -9 -8 2 -20 20 -20 20 -63 -1 -63 -9
0 -68 -55 -132 -122 -396 -419 -592 -585 -846 -718 -129 -68 -203 -90 -296
-90 -86 0 -116 8 -209 53 -67 33 -206 158 -252 227 -13 19 -26 37 -29 40 -9 8
-143 190 -181 245 -19 28 -36 52 -39 55 -3 3 -19 23 -35 45 -49 65 -175 194
-238 241 -76 57 -205 119 -297 144 -25 6 -59 16 -76 21 -17 5 -45 9 -62 9 -22
0 -32 5 -32 15 0 12 13 15 59 15 33 0 62 -4 65 -9 3 -4 35 -11 71 -15 73 -7
85 -11 203 -69 50 -24 114 -67 162 -109 87 -75 196 -211 184 -229 -4 -8 -3 -9
4 -5 8 5 12 -2 12 -21 0 -22 2 -25 10 -13 8 12 10 11 10 -7 0 -13 5 -23 10
-23 6 0 9 -3 8 -7 -1 -5 24 -47 55 -95 31 -47 57 -91 57 -97 0 -6 5 -11 10
-11 6 0 10 -4 10 -10 0 -16 28 -48 145 -165 117 -117 157 -143 263 -169 66
-16 192 -22 192 -8 0 4 -31 7 -69 8 -124 2 -254 70 -347 181 -27 32 -52 60
-55 63 -3 3 -52 75 -109 160 -57 85 -106 157 -110 160 -16 12 -60 91 -55 100
9 14 66 40 88 40 11 0 34 5 51 10 17 6 65 21 106 34 181 58 555 225 660 295
14 9 39 23 55 31 17 8 38 21 48 30 11 8 43 29 72 45 45 25 165 106 315 212 81
57 276 217 395 323 120 108 359 372 435 480 13 19 27 37 30 40 19 15 123 180
218 345 35 61 136 300 153 360 4 17 13 48 19 70 48 168 62 427 28 535 -59 189
-155 323 -296 414 -72 47 -196 100 -215 93 -7 -3 2 -8 18 -12 100 -26 229
-113 294 -200 50 -66 121 -193 121 -218 0 -9 -6 -16 -12 -15 -10 2 -12 -18
-10 -82 1 -47 -2 -101 -6 -120 -9 -34 -9 -34 -16 25 -23 195 -72 311 -170 403
-55 51 -142 103 -211 127 -72 25 -144 34 -275 35 -178 0 -275 -19 -460 -90
-30 -11 -68 -26 -85 -32 -38 -14 -245 -119 -304 -154 -223 -130 -512 -363
-766 -618 -177 -178 -244 -252 -325 -356 -19 -25 -37 -47 -41 -50 -19 -16
-197 -262 -240 -332 -103 -166 -129 -210 -129 -215 0 -3 -8 -17 -19 -31 -45
-65 -221 -413 -221 -437 0 -3 -8 -24 -19 -48 -17 -39 -30 -71 -78 -202 -14
-40 -19 -45 -21 -26 -2 13 1 28 7 34 6 6 11 19 11 29 0 10 4 26 9 36 12 23 26
60 41 102 18 53 25 69 58 140 149 321 154 339 105 340 -46 0 47 265 118 341
71 75 154 204 151 237 -2 29 36 150 56 177 26 36 7 -109 -19 -148 l-22 -32 29
30 c16 17 45 50 64 75 100 132 318 361 465 488 54 48 107 95 117 105 10 9 21
17 26 17 4 0 21 13 37 28 17 15 45 38 63 51 33 23 44 45 17 35 -9 -4 -16 2
-20 18 -3 13 -5 166 -3 341 l3 317 25 23 c14 13 54 43 90 67 73 49 84 59 92
80 7 20 -9 63 -21 55 -6 -3 -8 -12 -5 -20 4 -10 -18 -26 -77 -55 -99 -48 -145
-54 -104 -14 12 12 13 20 4 36 -15 28 -4 1413 12 1472 27 102 34 125 61 182
49 105 162 197 283 231 86 25 123 33 143 33 25 0 32 18 32 81 0 61 -19 73 -54
36 -13 -14 -39 -28 -57 -31 -19 -3 -70 -10 -114 -16 -96 -14 -200 -62 -274
-127 -28 -25 -51 -41 -51 -37 0 16 123 124 148 131 l27 7 -25 7 c-14 4 -179 7
-368 8 l-343 1 -15 -37 c-27 -64 -45 -106 -74 -168 -15 -33 -37 -87 -50 -120
-12 -33 -26 -70 -31 -82 -5 -13 -13 -33 -18 -45 -5 -13 -16 -39 -24 -58 -9
-19 -25 -60 -37 -90 -12 -30 -28 -71 -37 -90 -8 -19 -18 -44 -23 -55 -4 -11
-13 -33 -20 -50 -7 -16 -17 -40 -21 -52 -17 -45 -27 -69 -48 -115 -12 -26 -21
-52 -21 -58 0 -6 -4 -18 -9 -28 -5 -9 -24 -55 -41 -102 -18 -47 -36 -94 -40
-105 -17 -42 -254 -644 -283 -720 -17 -44 -41 -102 -53 -130 -12 -27 -54 -131
-94 -230 -39 -99 -78 -195 -86 -212 -8 -18 -20 -48 -28 -65 -8 -18 -29 -69
-46 -113 -17 -44 -38 -96 -47 -115 -8 -19 -19 -45 -24 -57 -5 -13 -14 -35 -20
-50 -17 -40 -28 -69 -104 -273 -9 -25 -23 -60 -31 -77 -8 -18 -20 -48 -28 -65
-8 -18 -25 -58 -38 -88 -14 -30 -35 -82 -47 -115 -13 -33 -31 -78 -41 -100 -9
-22 -34 -83 -56 -135 -21 -52 -42 -96 -46 -98 -4 -2 -8 -15 -8 -28 0 -14 -4
-22 -10 -19 -13 8 -13 45 0 45 6 0 8 21 6 50 -3 31 -1 50 6 50 5 0 7 -7 4 -16
-3 -9 -2 -12 5 -9 13 9 3 60 -20 100 -10 17 -21 44 -25 60 l-7 30 17 -24 c10
-13 28 -45 40 -70 13 -25 23 -40 23 -33 1 7 -8 30 -19 52 -11 21 -17 45 -14
53 2 8 -2 20 -11 27 -8 7 -14 24 -14 39 1 17 3 20 6 9 2 -10 8 -18 12 -18 17
0 18 13 4 41 -8 17 -12 33 -9 36 3 4 6 1 6 -5 0 -7 5 -12 11 -12 18 0 5 46
-50 175 -28 65 -78 188 -112 274 -66 169 -70 179 -92 231 -33 76 -127 315
-127 322 0 5 -9 30 -21 56 -32 72 -44 101 -70 172 -7 19 -23 58 -35 85 -12 28
-37 86 -55 130 -38 93 -48 87 -20 -13 16 -58 17 -80 9 -133 -5 -35 -10 -76
-10 -91 -1 -23 -4 -25 -24 -18 -36 14 -147 71 -174 90 -14 9 -50 30 -80 47
-30 17 -71 39 -90 50 -19 11 -62 36 -94 54 l-60 34 -78 195 c-43 107 -82 204
-87 215 -36 78 -51 116 -51 125 0 6 -4 18 -9 28 -11 22 -22 48 -66 162 -37 97
-47 119 -84 202 -11 26 -21 50 -21 53 0 3 -10 27 -21 53 -37 83 -46 104 -99
237 -29 72 -62 153 -74 180 -13 28 -31 70 -42 95 -38 91 -113 238 -123 245 -6
3 -26 30 -45 59 -42 66 -124 132 -228 185 -16 8 -26 16 -24 18 5 5 55 -17 86
-38 14 -9 42 -26 62 -38 l38 -21 13 28 c8 15 12 32 10 39 -3 8 14 17 44 25
l48 12 -40 8 c-22 4 -116 7 -210 6 -228 -1 -395 24 -416 64 -5 10 -16 18 -24
18 -12 0 -15 -15 -15 -69z m4606 -1640 c-1 -1017 -4 -1293 -13 -1302 -11 -10
-13 66 -13 382 0 218 -3 438 -7 489 -6 91 -6 92 -24 69 -14 -19 -20 -21 -32
-11 -13 11 -18 9 -32 -10 l-16 -23 -20 24 c-19 23 -20 23 -33 6 -9 -13 -15
-15 -20 -6 -4 6 -12 9 -17 5 -5 -3 -9 -2 -8 3 3 12 -12 43 -21 43 -4 0 -11
-11 -14 -25 -6 -22 -22 -29 -36 -15 -3 3 -15 11 -27 17 -19 11 -24 10 -32 -4
-6 -12 -13 -14 -23 -7 -21 16 -68 16 -74 -1 -9 -23 -18 -18 -32 17 -8 22 -15
29 -22 22 -20 -20 -30 -315 -30 -897 0 -390 -3 -586 -10 -582 -23 14 -5 2941
18 2981 10 16 11 12 12 -26 0 -58 10 -91 23 -83 7 4 8 0 3 -12 -5 -15 -4 -16
9 -5 13 11 14 10 9 -4 -5 -14 -2 -16 20 -12 15 3 24 1 21 -5 -4 -5 -11 -7 -16
-4 -5 4 -9 1 -9 -4 0 -10 14 -15 33 -12 5 1 6 -3 2 -9 -3 -5 -1 -18 5 -27 11
-17 11 -17 6 1 -6 17 -5 17 11 5 9 -8 14 -9 10 -2 -4 6 -2 15 4 19 8 4 9 3 5
-4 -4 -7 -2 -12 4 -12 6 0 8 -4 5 -10 -3 -5 1 -10 9 -10 10 0 13 -7 10 -24 -2
-14 0 -28 6 -31 10 -6 14 14 11 44 -2 7 2 10 7 7 5 -3 9 2 9 12 0 34 3 43 13
37 6 -3 10 -15 10 -27 0 -16 5 -19 21 -15 16 4 18 3 9 -8 -8 -9 -8 -15 0 -20
6 -4 10 -3 9 2 -1 4 1 16 6 26 7 16 9 16 26 -4 11 -12 20 -19 20 -16 1 4 3 12
4 17 1 6 3 20 4 32 1 17 4 19 13 10 15 -15 42 -16 33 -2 -4 6 -11 7 -17 4 -7
-4 -8 -2 -4 4 4 6 14 8 23 5 11 -4 14 -3 9 5 -4 7 -2 12 4 12 6 0 9 4 6 9 -3
5 0 14 8 20 11 9 13 6 11 -14 -2 -14 1 -23 6 -19 5 3 7 9 4 13 -2 5 3 17 11
27 9 10 13 13 9 7 -3 -7 -4 -13 -1 -13 10 0 35 57 28 64 -3 4 1 4 9 1 9 -3 16
0 17 7 2 15 36 158 38 158 1 0 1 -580 0 -1289z m-3924 314 c2 -474 7 -776 13
-785 5 -8 9 -26 7 -40 -1 -15 3 -9 11 15 7 22 17 39 22 38 6 -2 11 -62 12
-140 2 -143 -5 -152 -28 -35 -9 45 -15 59 -21 49 -4 -9 -13 -222 -18 -474 -5
-252 -10 -489 -11 -528 -5 -152 -17 321 -23 870 -3 319 -9 636 -12 704 -6 123
-7 124 -22 90 l-15 -34 -9 45 c-13 63 -5 255 11 274 7 9 17 14 21 11 4 -3 11
93 14 213 4 119 11 264 16 322 6 58 10 125 10 150 0 27 4 40 9 35 6 -6 11
-320 13 -780z m5580 -1102 c117 -33 239 -120 281 -200 8 -16 22 -43 32 -62 29
-55 52 -158 62 -270 13 -162 -49 -388 -177 -637 -65 -126 -231 -380 -320 -489
-202 -247 -496 -541 -720 -721 -272 -218 -663 -449 -955 -563 -104 -40 -121
-47 -177 -70 -54 -22 -160 -51 -184 -51 -9 0 -38 21 -65 48 -55 51 -107 85
-215 137 -83 40 -246 95 -281 95 -35 0 -63 18 -63 40 0 20 34 122 51 152 5 10
9 23 9 30 0 14 53 154 93 248 8 19 27 64 41 99 14 36 31 68 38 72 6 4 349 5
763 2 831 -5 770 -9 782 61 8 48 -7 63 -70 71 -203 27 -364 111 -419 220 -44
85 -47 126 -48 601 l0 452 38 38 c36 36 103 96 192 171 82 69 387 283 404 283
2 0 42 22 88 48 91 53 116 65 253 123 26 10 138 45 190 57 22 6 58 15 80 20
50 12 247 9 297 -5z m-2258 -510 c-6 -35 -19 -89 -45 -183 -6 -19 -14 -48 -18
-65 -16 -57 -151 -452 -171 -500 -4 -11 -22 -58 -40 -105 -18 -47 -36 -94 -40
-105 -5 -11 -45 -114 -91 -230 -45 -115 -86 -214 -90 -220 -5 -5 -9 -17 -9
-27 0 -10 -4 -18 -10 -18 -13 0 -16 -14 40 192 117 422 266 855 385 1113 12
28 37 80 54 118 17 37 33 67 36 67 3 0 3 -17 -1 -37z m2723 -363 c-24 -199
-224 -572 -461 -860 -157 -190 -402 -437 -566 -570 -30 -25 -57 -47 -60 -50
-42 -43 -442 -315 -576 -391 -19 -10 -51 -29 -71 -41 -74 -42 -219 -114 -278
-138 -33 -13 -64 -27 -70 -31 -5 -4 -30 -14 -55 -22 -25 -9 -83 -30 -130 -47
-148 -55 -317 -103 -331 -94 -22 13 -5 31 44 44 28 7 59 16 67 20 8 4 33 13
55 19 22 7 49 16 60 21 11 4 47 18 80 31 169 64 337 149 550 278 37 23 69 41
71 41 6 0 218 141 224 150 3 3 21 17 40 30 67 46 236 184 335 274 387 353 695
735 865 1076 56 111 110 230 111 243 0 7 7 -1 14 -18 7 -16 11 -38 10 -47 -2
-10 0 -18 6 -18 5 0 9 6 9 14 0 7 11 34 25 60 14 26 25 54 25 62 0 7 3 14 6
14 4 0 4 -22 1 -50z m-4200 -702 c-3 -8 -6 -5 -6 6 -1 11 2 17 5 13 3 -3 4
-12 1 -19z m1453 -115 c-1 -47 -26 -148 -45 -179 -32 -53 -115 -104 -115 -71
0 15 100 213 133 265 14 21 27 13 27 -15z m-3262 -158 c-3 -3 -9 2 -12 12 -6
14 -5 15 5 6 7 -7 10 -15 7 -18z m30 -36 c19 -30 8 -34 -12 -4 -9 14 -13 25
-9 25 5 0 14 -9 21 -21z m4056 -89 c15 0 25 7 29 20 5 19 6 19 59 -3 29 -13
80 -29 113 -36 33 -7 79 -17 102 -22 23 -5 58 -9 78 -9 29 0 36 -3 33 -17 -3
-16 -18 -18 -108 -21 -175 -6 -323 38 -391 115 -45 51 -35 61 16 14 26 -24 54
-41 69 -41z m-3990 21 c-2 -3 -12 3 -22 13 -16 17 -16 18 5 5 12 -7 20 -15 17
-18z m181 -5 c95 -38 218 -66 289 -66 49 0 61 -7 45 -27 -8 -9 -38 -13 -98
-13 -145 1 -300 34 -374 81 l-32 21 39 -4 c29 -3 41 0 49 14 15 22 10 23 82
-6z m-558 -22 l26 -5 -29 -18 c-28 -16 -69 -30 -149 -51 -55 -14 -222 -13
-231 1 -10 17 16 29 61 29 36 0 233 45 244 55 4 4 12 3 78 -11z m2954 -581
c-10 -17 -10 -16 -11 3 0 23 13 41 18 25 2 -6 -1 -18 -7 -28z m-20 -60 c-10
-17 -10 -16 -11 3 0 23 13 41 18 25 2 -6 -1 -18 -7 -28z m-20 -60 c-10 -17
-10 -16 -11 3 0 23 13 41 18 25 2 -6 -1 -18 -7 -28z m-20 -60 c-10 -17 -10
-16 -11 3 0 23 13 41 18 25 2 -6 -1 -18 -7 -28z m-24 -75 c-3 -8 -6 -5 -6 6
-1 11 2 17 5 13 3 -3 4 -12 1 -19z m-20 -70 c-3 -7 -5 -2 -5 12 0 14 2 19 5
13 2 -7 2 -19 0 -25z m318 -60 c33 -12 73 -27 90 -34 40 -16 155 -101 155
-114 0 -15 -36 -30 -72 -30 -18 0 -40 -5 -48 -10 -11 -7 10 -10 68 -9 80 2
103 -3 88 -18 -13 -13 -218 -8 -274 6 -79 20 -145 55 -181 96 -40 46 -34 57 9
17 40 -38 113 -73 165 -79 l40 -4 -30 14 c-16 8 -50 23 -75 35 -57 26 -89 60
-100 106 -6 28 -5 38 8 45 21 12 85 3 157 -21z m-338 0 c-3 -8 -6 -5 -6 6 -1
11 2 17 5 13 3 -3 4 -12 1 -19z"/>
<path d="M10287 13188 c3 -18 23 -86 44 -150 35 -111 64 -183 147 -373 51
-118 82 -214 75 -232 -4 -11 -3 -14 5 -9 11 7 16 -7 15 -41 -1 -7 3 -11 7 -8
4 2 14 -12 23 -33 8 -20 43 -104 77 -187 34 -82 72 -177 85 -210 27 -72 123
-309 200 -495 31 -74 78 -196 105 -270 26 -74 82 -218 123 -320 41 -102 91
-233 111 -293 20 -59 55 -154 77 -210 42 -105 51 -127 88 -209 11 -26 21 -51
21 -54 0 -16 203 -480 215 -493 11 -12 16 -6 28 35 15 49 85 244 177 489 26
72 62 171 80 220 17 50 35 99 40 110 4 11 45 115 90 230 45 116 86 220 91 233
5 12 14 33 19 47 6 14 15 36 20 50 6 14 15 36 20 50 6 14 14 35 19 48 11 28
20 47 119 282 44 105 128 306 187 448 58 143 116 280 129 305 24 50 82 196
141 355 32 89 47 125 79 197 14 32 32 51 40 43 3 -4 6 1 6 10 0 9 3 17 8 17 4
0 13 15 21 33 21 47 80 179 91 202 6 11 21 47 34 79 23 57 23 61 7 93 -20 42
-42 42 -60 1 -7 -18 -22 -52 -32 -75 -10 -24 -19 -45 -19 -48 0 -3 -8 -24 -19
-48 -10 -23 -29 -69 -41 -102 -12 -33 -26 -70 -31 -82 -5 -13 -13 -33 -18 -45
-5 -13 -19 -50 -31 -83 -12 -33 -28 -73 -35 -90 -8 -16 -28 -66 -45 -110 -17
-44 -37 -93 -45 -110 -7 -16 -26 -66 -43 -110 -55 -145 -255 -650 -262 -660
-4 -5 -21 -48 -39 -95 -40 -103 -51 -130 -62 -152 -5 -10 -9 -22 -9 -27 0 -5
-27 -73 -60 -151 -33 -78 -60 -145 -60 -150 0 -5 -11 -33 -24 -62 -13 -29 -47
-111 -76 -183 -28 -71 -58 -143 -65 -160 -22 -52 -126 -317 -142 -365 -9 -24
-28 -73 -44 -108 -16 -34 -29 -69 -29 -77 0 -7 -4 -17 -10 -20 -5 -3 -10 -13
-10 -21 0 -8 -9 -33 -19 -57 -11 -23 -34 -85 -51 -137 -37 -111 -53 -150 -61
-150 -3 0 -16 24 -28 53 -13 28 -32 71 -42 94 -10 24 -19 47 -19 53 0 6 -9 29
-19 53 -10 23 -47 114 -81 202 -34 88 -68 174 -75 190 -7 17 -28 66 -45 110
-17 44 -42 103 -54 130 -12 28 -28 66 -35 85 -7 19 -18 46 -23 60 -6 14 -15
35 -19 48 -9 22 -20 50 -38 95 -5 12 -37 94 -71 182 -34 88 -68 174 -75 190
-8 17 -23 55 -35 85 -12 30 -27 69 -35 85 -23 54 -75 190 -75 198 0 4 -9 29
-21 55 -25 56 -32 73 -54 132 -9 25 -23 61 -32 80 -18 43 -33 78 -44 108 -11
28 -26 64 -40 100 -18 42 -31 75 -39 97 -4 11 -12 31 -18 45 -5 14 -33 86 -62
160 -29 74 -57 146 -62 160 -6 14 -14 34 -18 45 -5 11 -17 41 -29 67 -12 26
-21 52 -21 58 0 6 -4 18 -9 28 -12 23 -26 60 -41 102 -7 19 -16 44 -20 55 -4
11 -18 47 -31 80 -12 33 -25 65 -29 70 -3 6 -13 30 -20 55 -28 89 -78 151 -63
78z"/>
<path d="M13215 13210 c17 -3 152 -7 300 -7 162 -1 252 2 225 7 -54 9 -568 10
-525 0z"/>
<path d="M14178 13213 c12 -2 30 -2 40 0 9 3 -1 5 -23 4 -22 0 -30 -2 -17 -4z"/>
<path d="M6191 12804 c-21 -27 -19 -47 12 -79 10 -11 51 -65 90 -120 40 -55
75 -104 80 -110 4 -5 21 -32 37 -58 35 -56 54 -66 80 -42 26 24 25 37 -5 73
-34 41 -32 80 5 115 17 16 30 34 30 41 0 7 11 23 24 35 20 19 33 22 82 19 69
-3 78 2 93 42 12 36 16 34 -84 50 -38 6 -91 16 -117 21 -26 6 -62 9 -80 8 -18
-2 -39 0 -46 5 -6 4 -35 9 -63 11 -28 2 -53 6 -56 9 -16 16 -63 4 -82 -20z
m192 -11 c-7 -2 -19 -2 -25 0 -7 3 -2 5 12 5 14 0 19 -2 13 -5z m27 -67 c73
-14 81 -25 55 -80 -23 -47 -50 -55 -83 -23 -15 14 -36 27 -47 29 -15 3 -20 12
-20 38 -1 57 -5 56 95 36z"/>
<path d="M10445 12509 c5 -41 3 -47 -15 -52 -11 -3 -20 -9 -19 -14 3 -19 -2
-34 -10 -29 -12 8 -30 -15 -34 -42 -2 -12 -9 -28 -15 -34 -7 -7 -12 -18 -12
-25 0 -20 -20 -15 -20 5 -1 15 -2 15 -16 -3 -10 -13 -14 -32 -10 -52 6 -38 -3
-49 -20 -25 -12 15 -13 14 -14 -14 0 -17 -7 -37 -15 -44 -10 -9 -15 -9 -15 -1
0 6 -7 11 -15 11 -9 0 -15 -9 -15 -24 0 -14 -9 -41 -21 -61 -15 -25 -19 -44
-15 -68 13 -70 120 -317 137 -317 13 0 29 36 21 46 -4 5 2 2 13 -7 11 -8 32
-20 46 -26 24 -10 26 -9 22 7 -8 29 13 32 38 5 33 -34 39 -31 34 18 -3 23 -2
36 1 28 4 -8 13 -21 20 -30 8 -9 21 -25 29 -36 16 -19 16 -19 12 12 -2 18 0
30 5 27 4 -3 8 0 8 6 0 7 8 9 21 5 14 -5 29 0 47 17 15 12 20 15 13 5 -12 -15
-12 -17 3 -11 9 3 23 1 32 -6 13 -12 14 -8 11 23 -7 62 26 44 68 -36 40 -75
26 -14 -30 131 -31 81 -75 194 -97 252 -22 58 -45 116 -50 130 -6 14 -14 34
-18 45 -5 11 -31 67 -59 125 -48 99 -51 102 -46 59z"/>
<path d="M5999 12410 c-43 -23 -49 -29 -89 -105 -61 -114 -70 -134 -65 -147 3
-8 45 -33 93 -55 48 -23 103 -50 122 -61 34 -18 82 -44 162 -83 48 -24 53 -24
66 5 17 38 4 65 -44 87 -50 22 -56 46 -27 102 42 80 34 169 -19 219 -24 22
-34 26 -44 17 -13 -11 -18 -5 -15 14 1 5 -17 7 -39 4 -41 -4 -65 8 -33 16 12
3 10 5 -7 5 -14 1 -41 -7 -61 -18z m122 -93 c31 -21 34 -27 37 -79 4 -71 -17
-118 -53 -118 -13 0 -26 4 -30 9 -3 6 -25 13 -49 16 -33 5 -47 13 -59 35 -16
26 -16 30 3 73 23 52 62 87 95 87 12 0 37 -10 56 -23z"/>
<path d="M5784 11887 c-27 -15 -84 -81 -84 -96 0 -6 -4 -19 -9 -29 -14 -28
-44 -102 -55 -134 -6 -20 52 -55 147 -89 34 -12 90 -35 125 -50 34 -16 69 -29
77 -29 7 0 17 -4 20 -10 9 -15 48 -12 73 6 28 19 30 54 3 54 -11 0 -23 5 -26
10 -3 6 -22 10 -41 10 -19 0 -33 4 -30 9 4 5 1 11 -5 13 -8 3 -6 21 6 63 10
33 18 88 18 122 1 56 -3 66 -27 92 -18 19 -34 27 -45 24 -9 -4 -13 -2 -8 2 12
14 -45 45 -83 45 -19 -1 -44 -6 -56 -13z m143 -137 c8 -20 7 -40 -2 -71 -22
-80 -23 -82 -70 -76 -47 7 -115 43 -115 60 0 27 29 92 49 113 42 44 117 30
138 -26z"/>
<path d="M10555 11761 c-3 -5 -2 -12 3 -15 5 -3 9 1 9 9 0 17 -3 19 -12 6z"/>
<path d="M5662 11006 c-41 -15 -109 -77 -123 -113 -15 -38 -35 -135 -44 -209
-8 -73 -6 -76 85 -86 139 -16 288 -41 338 -56 37 -12 35 -16 51 72 14 74 14
243 1 251 -5 3 -10 14 -10 24 0 20 -63 82 -100 98 -67 28 -84 33 -123 32 -23
-1 -57 -7 -75 -13z m129 -86 c9 0 37 -18 63 -41 l46 -41 0 -88 c0 -55 -4 -91
-11 -96 -7 -4 -55 -6 -108 -6 -131 2 -142 3 -106 11 27 7 25 8 -25 15 -63 10
-70 16 -70 69 0 91 89 194 160 183 19 -3 42 -6 51 -6z"/>
<path d="M14950 10890 c-12 -8 -11 -10 5 -9 11 1 34 5 50 9 l30 8 -35 1 c-19
0 -42 -4 -50 -9z"/>
<path d="M15388 10883 c7 -3 16 -2 19 1 4 3 -2 6 -13 5 -11 0 -14 -3 -6 -6z"/>
<path d="M14888 10873 c7 -3 16 -2 19 1 4 3 -2 6 -13 5 -11 0 -14 -3 -6 -6z"/>
<path d="M14575 10770 c-3 -5 -2 -10 4 -10 5 0 13 5 16 10 3 6 2 10 -4 10 -5
0 -13 -4 -16 -10z"/>
<path d="M14393 10685 c-83 -42 -157 -83 -164 -91 -8 -10 1 -8 26 7 78 44 270
139 282 139 6 0 15 5 18 10 12 19 -11 10 -162 -65z"/>
<path d="M14159 10555 c-51 -27 -90 -63 -45 -42 14 7 26 15 26 20 0 4 6 7 13
7 6 0 23 9 37 20 33 26 25 24 -31 -5z"/>
<path d="M14013 10462 c-24 -15 -43 -31 -43 -35 0 -4 21 6 48 24 58 40 57 39
46 39 -5 0 -28 -13 -51 -28z"/>
<path d="M5920 10415 c-14 -8 -32 -14 -41 -15 -24 0 -133 -47 -137 -58 -2 -6
-9 -9 -16 -6 -8 3 -21 -2 -30 -11 -9 -9 -20 -14 -26 -10 -5 3 -34 -6 -63 -20
-30 -14 -59 -25 -65 -25 -7 0 -12 -4 -12 -9 0 -5 -12 -11 -26 -13 -33 -4 -49
-27 -41 -60 5 -18 24 -32 74 -56 38 -18 72 -32 77 -32 9 0 232 -105 288 -136
36 -20 58 -18 58 5 0 42 -19 68 -59 85 -52 20 -59 39 -56 145 2 92 5 97 78
129 34 16 37 20 37 59 0 47 -3 49 -40 28z m-140 -224 c0 -54 -4 -70 -16 -75
-23 -9 -36 -7 -29 4 4 6 -7 10 -24 10 -17 0 -31 3 -31 8 0 8 -49 32 -67 32
-29 0 -10 31 30 49 84 37 92 40 115 40 21 1 22 -3 22 -68z"/>
<path d="M5809 9823 c-15 -2 -35 -14 -46 -26 -17 -19 -63 -145 -63 -173 0 -23
-27 -64 -52 -78 -26 -16 -27 -15 -47 13 -17 24 -21 44 -21 114 0 79 -1 85 -22
91 -39 10 -58 -25 -58 -105 0 -81 26 -148 70 -179 41 -29 104 -27 147 6 38 29
47 47 73 149 24 95 28 102 56 109 31 8 40 3 60 -37 13 -24 15 -48 11 -107 -5
-60 -3 -82 9 -99 15 -21 17 -21 34 -6 10 9 22 42 28 73 23 120 -41 272 -104
248 -8 -3 -14 -1 -14 4 0 10 -12 11 -61 3z"/>
<path d="M5985 9310 c-117 -89 -257 -190 -263 -190 -4 0 -24 -15 -45 -32 -51
-45 -51 -90 0 -117 30 -15 185 -15 202 2 10 8 12 8 7 0 -3 -6 -1 -15 5 -18 7
-5 10 0 7 11 -2 11 -7 18 -11 16 -4 -1 -20 4 -37 13 -16 8 -40 15 -54 15 -14
0 -28 5 -32 11 -9 16 54 78 105 102 54 25 61 19 81 -77 7 -36 18 -66 22 -66 5
0 6 -5 2 -11 -3 -6 -19 -9 -35 -7 -31 5 -37 -3 -15 -21 16 -14 117 -41 151
-41 52 0 73 23 33 35 -51 15 -78 31 -73 43 2 7 -4 27 -15 45 -11 17 -20 26
-20 19 0 -7 -5 -10 -11 -6 -6 3 -9 15 -6 25 3 12 1 17 -6 12 -16 -10 0 116 18
133 39 40 66 85 63 106 -4 33 -27 32 -73 -2z"/>
<path d="M6164 8737 c-12 -18 -24 -42 -28 -53 -7 -22 -64 -54 -95 -54 -25 0
-73 25 -64 33 3 4 -5 7 -18 7 -31 -1 -100 -32 -121 -56 -24 -28 -40 -96 -29
-130 75 -249 76 -250 178 -194 30 17 61 30 70 30 9 0 51 18 94 40 43 22 87 40
97 40 11 0 33 7 51 16 35 17 35 40 1 74 -18 18 -20 18 -64 -6 -64 -34 -84 -32
-102 12 -14 33 -14 40 1 71 9 19 30 46 47 61 42 38 51 65 33 107 -7 19 -18 35
-22 35 -4 0 -17 -15 -29 -33z m-144 -183 c31 -27 60 -81 60 -114 0 -11 -13
-22 -32 -30 -18 -7 -47 -19 -65 -26 -17 -8 -38 -12 -46 -8 -20 7 -37 49 -44
105 -5 42 -2 50 20 73 33 33 67 33 107 0z"/>
<path d="M6135 8160 c-4 -6 -10 -8 -14 -6 -4 3 -21 -3 -38 -14 -63 -38 -83
-135 -39 -187 13 -16 27 -46 31 -66 4 -20 11 -40 16 -43 5 -3 9 -13 9 -23 0
-22 40 -61 63 -61 18 0 52 18 131 69 28 17 53 31 58 31 4 0 35 18 69 40 34 22
67 40 74 40 18 0 45 34 45 56 -1 27 -22 52 -40 46 -8 -3 -25 -16 -37 -29 -12
-12 -29 -23 -37 -23 -14 0 -66 69 -66 87 0 12 -41 57 -70 76 -27 19 -144 24
-155 7z m121 -85 c34 -26 62 -73 66 -113 2 -18 -6 -29 -42 -49 -25 -14 -57
-37 -73 -51 -21 -20 -30 -23 -39 -14 -7 7 -9 12 -5 12 5 0 -6 20 -23 44 -50
73 -40 147 25 184 31 18 55 14 91 -13z"/>
<path d="M15140 7785 c-13 -14 -20 -25 -16 -25 4 0 18 11 32 25 14 14 21 25
16 25 -5 0 -19 -11 -32 -25z"/>
<path d="M15086 7725 c-28 -42 -228 -249 -431 -446 -154 -149 -308 -266 -445
-340 -25 -13 -50 -31 -57 -39 -7 -8 -13 -11 -13 -7 0 4 -10 2 -22 -5 -13 -6
-31 -12 -40 -13 -10 -1 -21 -5 -25 -8 -10 -10 35 -8 55 2 9 5 42 21 72 35 68
32 108 56 134 79 11 9 26 17 33 17 7 0 13 4 13 8 0 4 14 16 30 26 17 9 41 27
53 39 13 12 43 38 67 57 159 124 641 620 602 620 -5 0 -17 -11 -26 -25z"/>
<path d="M6858 7628 c-13 -13 -71 -66 -128 -118 -120 -109 -180 -170 -180
-186 0 -5 6 -18 13 -29 15 -19 14 -19 153 3 28 4 64 16 80 27 31 20 123 22
135 3 4 -6 -5 -27 -21 -47 -15 -20 -30 -48 -34 -62 -3 -14 -15 -36 -27 -50
-30 -35 -71 -128 -64 -149 7 -23 39 -60 52 -60 5 0 18 8 29 18 11 9 40 32 64
51 25 19 59 47 75 63 53 50 148 128 156 128 15 0 22 50 9 65 -23 28 -35 23
-124 -56 -58 -50 -116 -93 -116 -84 0 4 6 21 14 38 7 18 19 47 26 65 7 17 16
32 19 32 13 0 64 118 58 133 -7 18 -66 30 -82 17 -6 -5 -31 -12 -56 -14 -24
-3 -62 -10 -84 -15 -107 -27 -102 -26 -85 -5 8 10 25 27 38 37 12 10 22 25 22
33 0 7 22 29 50 46 61 41 88 85 71 116 -15 28 -34 28 -63 0z"/>
<path d="M7297 7142 c-15 -17 -15 -20 5 -48 12 -17 39 -43 61 -60 63 -47 79
-75 65 -115 -6 -19 -12 -35 -12 -36 -1 -1 -19 -9 -40 -18 l-38 -16 -46 48
c-38 38 -53 47 -85 49 -64 3 -59 -20 16 -91 37 -34 67 -69 67 -79 0 -19 -61
-86 -79 -86 -5 0 -43 32 -82 70 -71 69 -94 81 -116 59 -18 -18 10 -58 117
-164 99 -99 100 -99 119 -80 66 70 311 357 311 366 0 19 -216 219 -237 219 -5
0 -17 -8 -26 -18z"/>
<path d="M15630 6990 c0 -5 4 -10 10 -10 16 0 50 -33 66 -62 13 -25 12 -28
-16 -50 -16 -13 -49 -35 -74 -51 l-44 -28 -69 37 c-73 40 -103 62 -103 76 0
12 61 74 80 81 12 4 12 6 1 6 -40 3 -115 -74 -149 -152 -28 -65 -7 -157 52
-224 48 -55 93 -74 178 -76 57 -1 73 3 114 29 60 37 97 89 113 163 22 98 -15
185 -106 249 -33 24 -53 28 -53 12z"/>
<path d="M7692 6795 c-7 -14 -12 -45 -12 -67 0 -69 -19 -107 -57 -114 -18 -3
-31 -10 -28 -14 3 -5 -4 -6 -15 -3 -12 3 -29 -2 -42 -13 -27 -24 -57 -91 -58
-127 0 -47 61 -147 90 -147 5 0 22 -13 39 -29 18 -17 41 -33 52 -36 10 -4 19
-10 19 -14 0 -13 52 -33 62 -23 10 10 34 44 137 194 36 51 72 101 82 111 9 10
25 34 35 53 l19 34 -32 30 -32 30 -25 -33 c-15 -19 -26 -39 -26 -44 0 -13 -66
-73 -80 -73 -6 0 -10 5 -10 10 0 6 -6 10 -14 10 -8 0 -22 10 -30 22 -13 18
-15 40 -10 114 6 85 5 93 -17 123 -28 38 -33 38 -47 6z m25 -284 c23 -11 49
-31 58 -44 16 -24 15 -28 -10 -74 -49 -87 -61 -91 -131 -43 -59 41 -76 75 -59
116 15 36 50 64 80 64 11 0 39 -9 62 -19z"/>
<path d="M8339 6348 c-12 -24 -31 -56 -43 -73 -11 -16 -19 -36 -18 -44 2 -7
-2 -11 -8 -9 -6 2 -10 6 -9 8 1 3 -3 15 -9 27 -13 23 -30 29 -142 42 -66 9
-78 7 -105 -9 -44 -27 -67 -77 -63 -135 4 -56 25 -78 57 -58 15 10 21 10 25 0
3 -7 2 7 -1 30 -5 39 -2 46 30 78 43 43 82 46 144 10 23 -14 43 -28 43 -31 0
-27 -37 -114 -56 -131 -13 -12 -21 -28 -18 -37 3 -9 -2 -17 -15 -21 -39 -12
-21 -47 31 -60 24 -6 29 -2 47 32 11 22 27 45 35 52 9 8 16 19 16 25 0 17 47
113 59 121 6 3 18 23 28 43 9 20 30 59 45 85 35 60 37 87 6 86 -13 -1 -31 2
-40 5 -13 6 -22 -2 -39 -36z"/>
<path d="M8022 6043 c3 -19 48 -32 48 -14 0 6 -7 11 -15 11 -8 0 -15 5 -15 10
0 6 -5 10 -11 10 -6 0 -9 -8 -7 -17z"/>
<path d="M11248 4903 c7 -3 16 -2 19 1 4 3 -2 6 -13 5 -11 0 -14 -3 -6 -6z"/>
<path d="M9380 4850 c37 -12 112 -12 105 0 -3 6 -34 10 -68 9 -46 -1 -56 -3
-37 -9z"/>
<path d="M10949 4855 c-3 -2 -45 -9 -95 -15 -177 -20 -260 -29 -329 -35 -93
-8 -125 -15 -125 -26 0 -19 33 -21 143 -10 314 33 517 67 517 86 0 6 -105 7
-111 0z"/>
<path d="M9520 4830 c36 -12 120 -12 120 0 0 6 -30 10 -72 9 -52 -1 -66 -3
-48 -9z"/>
<path d="M9717 4813 c18 -2 50 -2 70 0 21 2 7 4 -32 4 -38 0 -55 -2 -38 -4z"/>
</g>
</svg>
